<?xml version="1.0" encoding="utf-8"?>
<svg version="1.0" width="360pt" height="240pt" viewBox="4 2.897 331.126 230.323" preserveAspectRatio="xMidYMid meet" xmlns="http://www.w3.org/2000/svg">
  <defs/>
  <g transform="matrix(0.1, 0, 0, -0.1, -136.398834, 321.853363)" stroke="none">
    <path d="M1431 3154 c-21 -27 -21 -31 -21 -915 0 -649 3 -895 12 -913 11 -25&#10;32 -37 73 -41 11 -1 298 -3 638 -4 l618 -1 -3 -97 -3 -98 -222 -3 -223 -2 0&#10;-40 0 -40 488 2 487 3 3 38 3 37 -225 0 -226 0 0 100 0 100 278 1 c358 2 382&#10;3 374 9 -4 3 -32 22 -63 43 l-55 37 -937 0 -937 0 0 865 0 865 1295 0 1295 0&#10;1 -357 c1 -197 1 -361 1 -364 -1 -4 17 -21 38 -38 l40 -32 0 419 c0 393 -1&#10;420 -18 435 -17 16 -125 17 -1355 17 l-1336 0 -20 -26z"/>
    <path d="M3220 2796 c-80 -31 -83 -34 -62 -47 12 -8 22 -19 22 -25 0 -12 -247&#10;-334 -256 -334 -3 0 -69 27 -147 61 -121 51 -145 59 -162 49 -11 -7 -86 -60&#10;-167 -117 l-148 -106 21 -28 c11 -16 24 -29 28 -29 5 0 70 45 146 100 76 55&#10;142 100 148 100 5 0 77 -29 160 -65 82 -36 151 -64 152 -63 1 3 285 369 291&#10;376 1 2 14 -4 28 -13 14 -10 26 -13 26 -9 0 5 6 48 14 97 9 61 10 87 2 86 -6&#10;0 -49 -15 -96 -33z"/>
    <path d="M3151 2183 c1 -181 5 -287 9 -257 16 112 65 220 140 311 l40 48 0&#10;102 0 103 -95 0 -95 0 1 -307z"/>
    <path d="M3695 2399 c-185 -23 -355 -146 -435 -315 -124 -258 -32 -579 205&#10;-723 102 -62 178 -84 295 -85 127 -1 220 25 316 90 l63 41 26 -27 c21 -21 25&#10;-33 19 -55 -6 -25 8 -42 192 -226 134 -134 206 -199 220 -199 23 0 114 90 114&#10;112 0 7 -92 104 -204 216 -191 191 -205 203 -226 192 -20 -11 -26 -8 -52 18&#10;l-30 30 31 46 c157 228 131 525 -64 721 -128 129 -292 186 -470 164z m258&#10;-146 c409 -193 326 -790 -120 -864 -140 -23 -279 25 -387 133 -139 140 -173&#10;333 -88 511 53 112 145 193 267 236 49 18 79 21 160 18 88 -2 108 -6 168 -34z"/>
    <path d="M2540 1945 l0 -315 95 0 95 0 0 315 0 315 -95 0 -95 0 0 -315z"/>
    <path d="M2848 1880 l3 -250 89 0 90 0 0 250 0 250 -92 0 -93 0 3 -250z"/>
    <path d="M2240 1840 l0 -210 95 0 95 0 -2 208 -3 207 -92 3 -93 3 0 -211z"/>
    <path d="M3151 1718 c-1 -81 0 -88 19 -88 17 0 18 3 9 28 -6 15 -14 54 -19 87&#10;l-7 60 -2 -87z"/>
  </g>
</svg>